<svg width="48" height="32" viewBox="0 0 48 32" fill="none" xmlns="http://www.w3.org/2000/svg">
<rect width="47.6279" height="32" rx="3" fill="white"/>
<path d="M35.6108 23.9589C37.2572 23.9589 38.032 23.3307 38.7089 21.4266L41.6741 13.1098H39.9573L37.9689 19.5442H37.934L35.9456 13.1186H34.1801L37.0407 21.0344L36.8875 21.5159C36.7793 22.2051 36.1606 22.6967 35.4641 22.6459C35.3312 22.6459 35.0734 22.6321 34.9688 22.6183V23.9255C35.1816 23.9546 35.3966 23.9684 35.6108 23.9676V23.9589ZM29.8896 19.794C28.9891 19.794 28.4175 19.3583 28.4175 18.6989C28.4175 18.0155 28.9688 17.6175 30.0225 17.5543L31.8991 17.436V18.0504C31.8577 19.0627 31.0029 19.8507 29.9905 19.8093C29.9564 19.8078 29.923 19.8049 29.8896 19.802V19.794ZM29.4364 21.0845C30.4582 21.1121 31.4139 20.5798 31.9274 19.696H31.9622V21.0032H33.5251V15.5892C33.5251 14.0191 32.2694 13.0074 30.3362 13.0074C28.5432 13.0074 27.2171 14.0329 27.1684 15.4425H28.6899C28.8714 14.7257 29.5526 14.2529 30.2876 14.3328C31.3203 14.3328 31.8991 14.8143 31.8991 15.7003V16.3001L29.793 16.4258C27.8322 16.5442 26.7719 17.3466 26.7719 18.7424C26.7705 20.1579 27.8656 21.0925 29.4357 21.0925L29.4364 21.0845ZM20.3797 11.547H22.326C23.7915 11.547 24.6288 12.3284 24.6288 13.7032C24.6288 15.0779 23.7915 15.8659 22.3194 15.8659H20.3797V11.547ZM18.6912 10.1236V21.001H20.3797V17.2929H22.7174C24.6216 17.3953 26.2476 15.9349 26.35 14.0307C26.3558 13.9225 26.3565 13.815 26.3522 13.7068C26.4422 11.8237 24.989 10.2246 23.1059 10.1338C22.9948 10.1287 22.8844 10.1294 22.7733 10.1345L18.6912 10.1236ZM13.0869 12.1534C12.1167 12.0975 11.2866 12.7046 10.8262 12.7046C10.3658 12.7046 9.65407 12.1817 8.88645 12.1963C7.86973 12.2224 6.94307 12.7852 6.45141 13.6756C5.40492 15.4759 6.17908 18.1411 7.19071 19.6059C7.686 20.3321 8.28005 21.1274 9.06074 21.099C9.80004 21.0714 10.0934 20.6176 10.9867 20.6176C11.8799 20.6176 12.145 21.099 12.9264 21.0845C13.7355 21.0707 14.2453 20.3583 14.742 19.6321C15.092 19.1179 15.3644 18.5551 15.551 17.9618C14.5975 17.5449 13.9795 16.6059 13.9744 15.5652C13.9889 14.6473 14.4697 13.8005 15.2511 13.319C14.7529 12.6117 13.9533 12.1774 13.0884 12.1469L13.0869 12.1534ZM12.4813 11.1926C12.0564 11.7278 11.4064 12.035 10.7231 12.0227C10.6795 11.356 10.9061 10.7002 11.3513 10.202C11.7943 9.68787 12.4188 9.36543 13.0942 9.30225C13.1421 9.9878 12.9221 10.6646 12.4798 11.1904" fill="#111111"/>
</svg>
