<svg width="48" height="32" viewBox="0 0 48 32" fill="none" xmlns="http://www.w3.org/2000/svg">
<rect width="47.6279" height="32" rx="3" fill="#2F4653"/>
<path d="M13.2048 12.7677C13.1955 12.1765 13.02 11.5853 12.4935 11.2528C11.9855 10.9295 11.3111 10.9387 10.9139 11.4283C10.8862 11.4652 10.8123 11.5391 10.8308 11.5946C10.8493 11.65 10.9786 11.6407 11.0248 11.6685C11.1172 11.7146 11.1541 11.807 11.1449 11.8994C11.1449 12.0102 11.1449 13.091 11.1356 14.5689C9.83318 14.5597 8.52149 14.5505 7.21904 14.5412C7.19132 14.2179 7.18209 13.8577 7.2098 13.4605C7.22827 13.1002 7.27446 12.7307 7.34836 12.3705C7.37607 12.2135 7.41302 12.0564 7.4592 11.8994C7.50539 11.7331 7.62547 11.5207 7.61624 11.3451C7.61624 11.3174 7.607 11.299 7.59776 11.2805C7.56081 11.2343 7.49615 11.2435 7.44073 11.262C7.10819 11.3451 6.78489 11.5207 6.52624 11.7516C6.45234 11.8255 6.23989 12.0195 6.04591 12.3612C5.54709 13.2573 5.50091 14.532 5.50091 14.532C5.4732 15.3541 5.44548 17.0261 6.32302 18.7627C6.32302 18.7627 6.94192 19.982 7.81946 20.2776C7.99496 20.333 8.04115 20.296 8.05963 20.2776C8.12429 20.1852 7.97649 20.0374 7.93954 19.9727C7.85641 19.8527 7.79175 19.7141 7.73632 19.5848C7.61624 19.3077 7.5331 19.0121 7.47768 18.7072C7.29293 17.802 7.17285 16.8783 7.20056 15.9545H11.1541C11.1541 17.1184 11.1541 18.2823 11.1541 19.4462C11.1541 19.6771 11.2465 19.8988 11.4589 20.0097C11.5883 20.0743 11.736 20.1021 11.8746 20.1205C12.124 20.1482 12.3827 20.1667 12.6321 20.1205C12.7799 20.0928 12.9184 20.0374 13.0293 19.9358C13.2048 19.7695 13.2048 19.5571 13.2048 19.3354C13.2048 17.5803 13.2232 15.8345 13.2232 14.0794C13.214 13.636 13.214 13.2018 13.2048 12.7677Z" fill="url(#paint0_linear_201_3886)"/>
<path d="M7.792 20.7209C6.19396 20.2498 5.57507 18.5686 5.23329 17.0999C5.15939 16.7766 5.08549 16.4625 5.04854 16.1392C4.91922 15.1508 4.91922 14.0701 5.24252 13.1187C5.00236 13.1741 4.89151 13.3865 4.74371 13.5528C4.22643 14.1717 4.18024 14.9014 4.16177 15.6219C4.10634 17.3124 4.716 18.5132 4.85456 18.7718C5.16863 19.3538 5.50117 19.7325 5.60278 19.8434C5.95379 20.2406 6.31404 20.5085 6.59116 20.6932C6.37871 20.6378 6.06464 20.5362 5.74134 20.3329C5.43651 20.1482 5.22405 19.9357 5.07625 19.7787C4.87303 19.5201 4.72524 19.2799 4.63287 19.1229C4.38346 18.6795 4.06016 18.1345 3.90312 17.4047C3.85694 17.2015 3.82923 16.9891 3.74609 16.9798C3.62601 16.9706 3.49669 17.3863 3.46897 17.4786C3.3766 17.7742 3.34889 18.0421 3.35813 18.1807C3.36736 18.7349 3.78304 19.8157 4.77143 20.5454C4.77143 20.5454 5.63973 21.1828 7.12692 21.2382C7.19158 21.2382 7.55184 21.229 7.81048 21.0442C7.9398 20.9334 8.02294 20.7856 7.792 20.7209Z" fill="url(#paint1_linear_201_3886)"/>
<path d="M5.24219 13.1093L5.25142 13.1185L5.2699 13.0908L5.24219 13.1093Z" fill="url(#paint2_linear_201_3886)"/>
<path d="M33.6199 12.5642C33.6292 12.361 33.6199 12.0562 33.546 11.6959C33.5368 11.659 33.5276 11.5666 33.4814 11.4558C33.4537 11.4003 33.389 11.2433 33.2227 11.1417C33.1304 11.0863 33.038 11.0493 32.9364 11.0493C32.8625 11.0493 32.7886 11.0586 32.7239 11.0586C32.6223 11.0586 32.5207 11.0586 32.4283 11.0586C32.2343 11.0586 32.0404 11.0586 31.8464 11.0586C31.6709 11.0678 31.5138 11.1232 31.3845 11.2525C31.2367 11.4096 31.1166 11.622 30.9227 12.1024C30.8857 12.1763 30.8672 12.2502 30.8488 12.2871C30.7749 12.4441 29.7311 14.7073 29.3339 15.3631C29.3061 15.4093 29.2415 15.5201 29.1583 15.5109C29.0752 15.5109 29.0105 15.4093 28.9828 15.3631C28.5856 14.7073 27.5418 12.4441 27.4679 12.2871C27.4495 12.2409 27.4217 12.1763 27.394 12.1024C27.2 11.6313 27.08 11.4096 26.9322 11.2525C26.8121 11.1232 26.6458 11.0678 26.4703 11.0586C26.2763 11.0493 26.0823 11.0586 25.8884 11.0586C25.7867 11.0586 25.6851 11.0586 25.5928 11.0586C25.5189 11.0586 25.445 11.0586 25.3803 11.0493C25.2787 11.0493 25.1771 11.0863 25.094 11.1417C24.9277 11.2433 24.863 11.4003 24.8353 11.4558C24.7891 11.5666 24.7799 11.659 24.7706 11.6959C24.6968 12.0562 24.6875 12.361 24.6968 12.5642C24.6229 14.892 24.549 17.2198 24.4658 19.5383C24.4658 19.5753 24.4751 19.6307 24.4935 19.6861C24.6136 20.0279 25.0478 20.1942 25.3803 20.1942C25.7128 20.1942 26.1193 20.0372 26.2578 19.7323C26.2578 19.7323 26.2856 19.6677 26.304 19.603C26.4056 19.1319 26.4611 15.3169 26.4795 13.6542C27.394 15.5201 28.1053 16.915 28.4286 17.5339C28.4933 17.6632 28.6411 17.9126 28.8997 18.005C28.9736 18.0327 29.0567 18.0419 29.1491 18.0419C29.2322 18.0419 29.3154 18.0234 29.3985 18.005C29.6572 17.9218 29.805 17.6632 29.8696 17.5339C30.2022 16.915 30.9134 15.5201 31.8187 13.6542C31.8371 15.3169 31.8926 19.1319 31.9942 19.603C32.0127 19.6677 32.0311 19.7323 32.0404 19.7323C32.1789 20.0372 32.5854 20.2034 32.9179 20.1942C33.2504 20.1942 33.6846 20.0187 33.8047 19.6861C33.8232 19.6307 33.8324 19.5753 33.8324 19.5383C33.777 17.2106 33.7031 14.892 33.6199 12.5642Z" fill="url(#paint3_linear_201_3886)"/>
<path d="M22.6646 11.3265C22.4798 11.0864 22.1473 11.0771 21.8424 11.0679C21.5468 11.0586 21.1774 11.0494 20.9372 11.3081C20.8079 11.4558 20.7709 11.6221 20.7617 11.7237C20.7524 13.4419 20.7524 15.16 20.7432 16.8781C20.7432 17.0444 20.734 17.3584 20.5585 17.7095C20.383 18.079 20.1243 18.2822 20.0597 18.3376C20.0597 18.3376 19.6255 18.6794 19.062 18.7256C19.0066 18.7256 18.9419 18.7348 18.9419 18.7348C18.9235 18.7348 18.9142 18.7348 18.8958 18.7348C18.8773 18.7348 18.868 18.7348 18.8496 18.7348C18.8496 18.7348 18.7942 18.7348 18.7295 18.7256C18.166 18.6794 17.7319 18.3376 17.7319 18.3376C17.6672 18.2822 17.4086 18.079 17.2331 17.7095C17.0668 17.3584 17.0483 17.0444 17.0483 16.8781C17.0391 15.16 17.0391 13.4419 17.0298 11.7237C17.0206 11.6221 16.9837 11.4466 16.8543 11.3081C16.6234 11.0494 16.2447 11.0586 15.9491 11.0679C15.635 11.0771 15.3117 11.0864 15.127 11.3265C14.9792 11.5113 14.9884 11.7422 14.9976 11.8438C14.9976 13.6451 14.9976 15.4371 14.9976 17.2384C14.9976 17.7372 15.1454 18.4023 15.6258 19.0396C16.1615 19.7509 16.9375 20.065 17.1684 20.1481C17.6487 20.3236 18.1198 20.379 18.2676 20.3883C18.517 20.416 18.7295 20.416 18.8865 20.4067C19.0436 20.416 19.256 20.4067 19.5054 20.3883C19.6532 20.3698 20.1243 20.3236 20.6047 20.1481C20.8448 20.0557 21.6115 19.7417 22.1473 19.0396C22.6276 18.4115 22.7754 17.7464 22.7754 17.2384C22.7754 15.4371 22.7754 13.6451 22.7754 11.8438C22.8031 11.7514 22.8124 11.5205 22.6646 11.3265Z" fill="url(#paint4_linear_201_3886)"/>
<path d="M44.0572 13.922C43.7986 13.0537 43.2628 12.2962 42.5423 11.7512C41.7202 11.1415 40.7041 10.8182 39.688 10.7905C38.6626 10.8182 37.6558 11.1415 36.8337 11.7512C36.1132 12.2962 35.5774 13.0537 35.3188 13.922C34.5798 16.4068 35.6975 19.5751 38.3671 20.2772C38.8012 20.388 39.2446 20.4342 39.688 20.425C40.1314 20.4342 40.5748 20.388 41.0089 20.2772C43.6785 19.5751 44.7962 16.4068 44.0572 13.922ZM42.0712 16.7024C41.7941 17.8755 41.0089 19.141 39.688 19.1595C38.3578 19.141 37.5819 17.8755 37.2955 16.7024C37.0276 15.5662 37.0738 14.236 37.7112 13.2199C38.1546 12.5179 38.9028 12.1022 39.6787 12.1022C40.4639 12.1115 41.2121 12.5271 41.6463 13.2199C42.2836 14.2268 42.3391 15.5662 42.0712 16.7024Z" fill="url(#paint5_linear_201_3886)"/>
<defs>
<linearGradient id="paint0_linear_201_3886" x1="11.3146" y1="16.6877" x2="4.98284" y2="11.8961" gradientUnits="userSpaceOnUse">
<stop offset="0.329" stop-color="#9C8837"/>
<stop offset="0.5606" stop-color="#F7E59E"/>
<stop offset="0.6012" stop-color="#EFDD95"/>
<stop offset="0.6639" stop-color="#DDCA81"/>
<stop offset="0.7405" stop-color="#C4B062"/>
<stop offset="0.7875" stop-color="#B39F4D"/>
</linearGradient>
<linearGradient id="paint1_linear_201_3886" x1="8.94975" y1="19.813" x2="2.61794" y2="15.0214" gradientUnits="userSpaceOnUse">
<stop offset="0.329" stop-color="#9C8837"/>
<stop offset="0.5606" stop-color="#F7E59E"/>
<stop offset="0.6012" stop-color="#EFDD95"/>
<stop offset="0.6639" stop-color="#DDCA81"/>
<stop offset="0.7405" stop-color="#C4B062"/>
<stop offset="0.7875" stop-color="#B39F4D"/>
</linearGradient>
<linearGradient id="paint2_linear_201_3886" x1="10.8339" y1="17.3228" x2="4.50205" y2="12.5311" gradientUnits="userSpaceOnUse">
<stop offset="0.329" stop-color="#9C8837"/>
<stop offset="0.5606" stop-color="#F7E59E"/>
<stop offset="0.6012" stop-color="#EFDD95"/>
<stop offset="0.6639" stop-color="#DDCA81"/>
<stop offset="0.7405" stop-color="#C4B062"/>
<stop offset="0.7875" stop-color="#B39F4D"/>
</linearGradient>
<linearGradient id="paint3_linear_201_3886" x1="34.7725" y1="18.6421" x2="24.9326" y2="13.4227" gradientUnits="userSpaceOnUse">
<stop offset="0.329" stop-color="#9C8837"/>
<stop offset="0.5606" stop-color="#F7E59E"/>
<stop offset="0.6012" stop-color="#EFDD95"/>
<stop offset="0.6639" stop-color="#DDCA81"/>
<stop offset="0.7405" stop-color="#C4B062"/>
<stop offset="0.7875" stop-color="#B39F4D"/>
</linearGradient>
<linearGradient id="paint4_linear_201_3886" x1="23.7479" y1="18.1587" x2="13.908" y2="11.998" gradientUnits="userSpaceOnUse">
<stop offset="0.329" stop-color="#9C8837"/>
<stop offset="0.5606" stop-color="#F7E59E"/>
<stop offset="0.6012" stop-color="#EFDD95"/>
<stop offset="0.6639" stop-color="#DDCA81"/>
<stop offset="0.7405" stop-color="#C4B062"/>
<stop offset="0.7875" stop-color="#B39F4D"/>
</linearGradient>
<linearGradient id="paint5_linear_201_3886" x1="46.6244" y1="19.6646" x2="34.3886" y2="12.5627" gradientUnits="userSpaceOnUse">
<stop offset="0.329" stop-color="#9C8837"/>
<stop offset="0.5606" stop-color="#F7E59E"/>
<stop offset="0.6012" stop-color="#EFDD95"/>
<stop offset="0.6639" stop-color="#DDCA81"/>
<stop offset="0.7405" stop-color="#C4B062"/>
<stop offset="0.7875" stop-color="#B39F4D"/>
</linearGradient>
</defs>
</svg>
