<svg width="48" height="32" viewBox="0 0 48 32" fill="none" xmlns="http://www.w3.org/2000/svg">
<rect width="47.6279" height="32" rx="3" fill="#01326F"/>
<path d="M28.0885 8.10205H19.2988V23.8984H28.0885V8.10205Z" fill="#FF5F00"/>
<path d="M19.8571 16.0018C19.8555 14.4803 20.2001 12.9784 20.8648 11.6097C21.5295 10.2411 22.497 9.04169 23.6939 8.10228C22.2119 6.93764 20.4322 6.21341 18.5582 6.01238C16.6841 5.81135 14.7913 6.14163 13.0961 6.96546C11.4008 7.78928 9.97156 9.07343 8.97162 10.6711C7.97168 12.2688 7.44141 14.1156 7.44141 16.0004C7.44141 17.8852 7.97168 19.732 8.97162 21.3297C9.97156 22.9274 11.4008 24.2116 13.0961 25.0354C14.7913 25.8592 16.6841 26.1895 18.5582 25.9885C20.4322 25.7874 22.2119 25.0632 23.6939 23.8986C22.4974 22.9595 21.5301 21.7605 20.8654 20.3924C20.2007 19.0243 19.8559 17.5229 19.8571 16.0018Z" fill="#EB001B"/>
<path d="M39.9483 16.0015C39.9482 17.8865 39.4178 19.7334 38.4177 21.3311C37.4176 22.9289 35.9881 24.213 34.2927 25.0367C32.5972 25.8604 30.7042 26.1905 28.83 25.9892C26.9559 25.7879 25.1762 25.0633 23.6943 23.8983C24.8904 22.9583 25.8573 21.759 26.5222 20.3908C27.1871 19.0226 27.5326 17.5213 27.5326 16.0001C27.5326 14.4789 27.1871 12.9776 26.5222 11.6094C25.8573 10.2412 24.8904 9.04193 23.6943 8.10197C25.1762 6.93697 26.9559 6.21239 28.83 6.01108C30.7042 5.80976 32.5972 6.13982 34.2927 6.96353C35.9881 7.78724 37.4176 9.07136 38.4177 10.6691C39.4178 12.2669 39.9482 14.1138 39.9483 15.9987V16.0015Z" fill="#F79E1B"/>
</svg>
