<svg width="48" height="32" viewBox="0 0 48 32" fill="none" xmlns="http://www.w3.org/2000/svg">
<rect width="47.6279" height="32" rx="3" fill="#203E7A"/>
<path fill-rule="evenodd" clip-rule="evenodd" d="M14.2241 29.3316C15.0329 29.3316 15.4232 28.8756 15.4232 28.2059V26.5914H14.8444V28.1898C14.8398 28.3542 14.772 28.5103 14.6556 28.6249C14.5391 28.7395 14.3832 28.8036 14.2208 28.8036C14.0584 28.8036 13.9024 28.7395 13.786 28.6249C13.6695 28.5103 13.6018 28.3542 13.5971 28.1898V26.5914H13.0234V28.2106C13.0234 28.8725 13.4138 29.3327 14.2226 29.3327L14.2241 29.3316ZM18.9167 29.2829V28.7786H17.6335L18.889 27.0532V26.593H16.8913V27.0978H18.1458L16.8928 28.817V29.2798L18.9167 29.2829ZM21.6208 29.3316C21.8485 29.337 22.0732 29.2779 22.2696 29.161C22.466 29.044 22.6262 28.8739 22.7323 28.6697L22.2436 28.4316C22.1844 28.5482 22.0948 28.6463 21.9846 28.7152C21.8744 28.7841 21.7477 28.8213 21.6182 28.8227C21.3941 28.8117 21.1829 28.7138 21.0282 28.5494C20.8734 28.3849 20.7871 28.1664 20.7871 27.9392C20.7871 27.7121 20.8734 27.4936 21.0282 27.3291C21.1829 27.1646 21.3941 27.0667 21.6182 27.0557C21.7475 27.058 21.8739 27.0955 21.9839 27.1644C22.094 27.2332 22.1837 27.3308 22.2436 27.4469L22.7313 27.2046C22.6253 27.0007 22.4649 26.8309 22.2685 26.7146C22.072 26.5983 21.8472 26.5402 21.6197 26.5468C21.4375 26.5385 21.2556 26.567 21.0843 26.6306C20.9131 26.6942 20.7561 26.7916 20.6224 26.9173C20.4888 27.0429 20.3811 27.1942 20.3057 27.3624C20.2303 27.5305 20.1886 27.7122 20.1832 27.8968C20.1778 28.0815 20.2086 28.2653 20.274 28.4377C20.3394 28.6102 20.438 28.7677 20.564 28.9012C20.6901 29.0346 20.8411 29.1414 21.0083 29.2152C21.1754 29.289 21.3554 29.3284 21.5378 29.3311C21.5649 29.3311 21.5926 29.3311 21.6197 29.3311L21.6208 29.3316ZM26.5638 29.2829L25.5393 26.5914H24.8309L23.8029 29.2839H24.4462L24.6137 28.8279H25.7529L25.9163 29.2839L26.5638 29.2829ZM25.5998 28.3226H24.771L25.1854 27.1647L25.5998 28.3226ZM30.384 29.9583L29.4108 28.2588C29.5852 28.2164 29.7392 28.113 29.8456 27.9668C29.9521 27.8207 30.0042 27.6411 29.9927 27.4599C30.001 27.2378 29.9219 27.0214 29.7727 26.8583C29.6235 26.6953 29.4165 26.5989 29.1972 26.5904C29.1648 26.5883 29.1323 26.5883 29.0999 26.5904H27.8546V29.2839H28.4181V28.3268H28.8325L29.734 29.9583H30.384ZM29.0143 27.823H28.4206V27.0967H29.0123C29.1074 27.0865 29.2026 27.115 29.2769 27.1759C29.3513 27.2369 29.3987 27.3252 29.4087 27.4215C29.4188 27.5178 29.3907 27.6142 29.3305 27.6895C29.2704 27.7648 29.1832 27.8128 29.0881 27.823C29.0629 27.8256 29.0375 27.8256 29.0123 27.823H29.0143ZM32.5072 29.2839C33.3401 29.2839 33.9179 28.7511 33.9179 27.9398C33.9179 27.1284 33.3386 26.5909 32.5072 26.5909H31.4592V29.2839H32.5072ZM32.5072 28.7797H32.0273V27.0967H32.5093C32.7148 27.0814 32.9179 27.1493 33.074 27.2855C33.2302 27.4216 33.3266 27.6149 33.3422 27.823C33.3447 27.8615 33.3447 27.9002 33.3422 27.9387C33.3511 28.1523 33.2758 28.3607 33.133 28.5182C32.9901 28.6756 32.7914 28.7691 32.5805 28.7781C32.5563 28.7794 32.532 28.7794 32.5078 28.7781L32.5072 28.7797Z" fill="white"/>
<path fill-rule="evenodd" clip-rule="evenodd" d="M34.6049 26.5413V26.5475C34.605 26.6466 34.576 26.7435 34.5218 26.826C34.4675 26.9085 34.3903 26.9728 34.2999 27.0108C34.2095 27.0488 34.11 27.0589 34.014 27.0396C33.918 27.0204 33.8298 26.9728 33.7605 26.9027C33.6913 26.8327 33.644 26.7435 33.6248 26.6463C33.6057 26.5491 33.6153 26.4483 33.6527 26.3567C33.6901 26.2651 33.7534 26.1868 33.8347 26.1316C33.916 26.0765 34.0117 26.047 34.1095 26.0469H34.6044L34.6049 26.5413Z" fill="white"/>
<path fill-rule="evenodd" clip-rule="evenodd" d="M32.2517 14.8209C32.2517 17.8756 31.5628 20.1473 30.1849 21.6361C28.8078 23.1191 26.6829 23.8606 23.81 23.8606C21.1292 23.8606 19.0954 23.1191 17.7086 21.6361C16.3218 20.1531 15.6282 17.9162 15.6279 14.9254V4.89174C15.6283 4.77875 15.6727 4.67048 15.7516 4.59059C15.8305 4.51069 15.9374 4.46566 16.049 4.46533H20.9101C21.0216 4.46566 21.1285 4.5107 21.2073 4.59061C21.2861 4.67052 21.3305 4.77879 21.3307 4.89174V15.1446C21.3307 16.3656 21.5541 17.3055 22.0077 17.9684C22.2331 18.2707 22.5237 18.5169 22.8572 18.6883C23.1908 18.8596 23.5585 18.9517 23.9325 18.9573C24.3065 18.963 24.6768 18.8822 25.0153 18.7211C25.3538 18.56 25.6515 18.3227 25.8858 18.0275C26.3292 17.4055 26.551 16.4887 26.551 15.2771V13.3572H32.2517V14.8209Z" fill="white"/>
<path fill-rule="evenodd" clip-rule="evenodd" d="M31.811 12.2356H26.5508V4.91156C26.5511 4.79352 26.5975 4.6804 26.6797 4.59682C26.762 4.51325 26.8736 4.46598 26.9901 4.46533H27.7776C27.7784 5.66628 28.2501 6.81774 29.0889 7.66663C29.9277 8.51552 31.0649 8.99237 32.2507 8.99237V12.2356H31.811Z" fill="white"/>
<path fill-rule="evenodd" clip-rule="evenodd" d="M28.8984 4.46533H31.811C31.9278 4.46566 32.0397 4.51276 32.1223 4.59636C32.2049 4.67996 32.2515 4.79327 32.252 4.91156V7.86546C31.3626 7.86546 30.5096 7.50763 29.8807 6.87068C29.2518 6.23372 28.8984 5.36983 28.8984 4.46905V4.46533Z" fill="#F4821F"/>
</svg>
