<svg width="48" height="32" viewBox="0 0 48 32" fill="none" xmlns="http://www.w3.org/2000/svg">
<rect width="47.6279" height="32" rx="3" fill="url(#paint0_linear_201_3888)"/>
<path d="M24.4268 14.1059C24.4064 15.7127 25.8587 16.6094 26.9528 17.1425C28.0769 17.6895 28.4544 18.0402 28.4501 18.5293C28.4415 19.278 27.5534 19.6084 26.7221 19.6213C25.272 19.6438 24.4289 19.2298 23.7585 18.9166L23.2361 21.361C23.9087 21.671 25.154 21.9413 26.4454 21.9531C29.4766 21.9531 31.4599 20.4568 31.4706 18.1368C31.4824 15.1924 27.3979 15.0294 27.4258 13.7133C27.4354 13.3143 27.8162 12.8885 28.6507 12.7801C29.0637 12.7254 30.2038 12.6836 31.4963 13.2789L32.0037 10.9138C31.3086 10.6607 30.4151 10.4182 29.3028 10.4182C26.4497 10.4182 24.4428 11.9349 24.4268 14.1059ZM36.8787 10.622C36.3253 10.622 35.8587 10.9449 35.6506 11.4404L31.3204 21.7794H34.3495L34.9523 20.1136H38.6539L39.0036 21.7794H41.6733L39.3436 10.622H36.8787ZM37.3024 13.6361L38.1766 17.8257H35.7825L37.3024 13.6361ZM20.7541 10.622L18.3665 21.7794H21.2529L23.6395 10.622H20.7541ZM16.484 10.622L13.4797 18.2161L12.2644 11.759C12.1217 11.0382 11.5586 10.622 10.9333 10.622H6.02177L5.95312 10.946C6.96138 11.1648 8.10693 11.5177 8.80091 11.8952C9.22567 12.1258 9.34687 12.3275 9.48631 12.8756L11.7881 21.7794H14.8387L19.5153 10.622H16.484Z" fill="white"/>
<defs>
<linearGradient id="paint0_linear_201_3888" x1="21.3953" y1="32" x2="31.2371" y2="0.696028" gradientUnits="userSpaceOnUse">
<stop stop-color="#222357"/>
<stop offset="1" stop-color="#254AA5"/>
</linearGradient>
</defs>
</svg>
